<?xml version="1.0" encoding="utf-8"?>
<!-- Generator: Adobe Illustrator 16.0.0, SVG Export Plug-In . SVG Version: 6.00 Build 0)  -->
<!DOCTYPE svg PUBLIC "-//W3C//DTD SVG 1.1//EN" "http://www.w3.org/Graphics/SVG/1.1/DTD/svg11.dtd">
<svg version="1.1" id="Layer_1" xmlns="http://www.w3.org/2000/svg" xmlns:xlink="http://www.w3.org/1999/xlink" x="0px" y="0px"
	 width="307px" height="282px" viewBox="0 0 307 282" enable-background="new 0 0 307 282" xml:space="preserve">
<g id="_x23_fbc66aff">
</g>
<g id="_x23_cecdcbff">
	<path fill="#CECDCB" stroke="#CECDCB" stroke-width="0.0938" d="M71.77,22.87c1.88-6.26,8.55-9.85,14.87-8.5
		c2.61,1.22,5.28,2.82,6.51,5.56c2.061,3.58,1.471,7.85,1.63,11.81c-0.329,2.14-0.76,4.26-1.13,6.4
		c-1.34-3.87-2.739-7.72-4.109-11.57c-2.511-0.04-5.29,1.12-7.5-0.6c-2.301-1.83-5.23-1.42-7.931-1.11
		C73.33,24.2,72.55,23.53,71.77,22.87z"/>
</g>
<g id="_x23_ffffffff">
	<path fill="#EAE5E5" stroke="#FFFFFF" stroke-width="0.0938" d="M86.64,14.37c40.08,0.13,80.17-0.13,120.24,0.15
		c6.49-0.14,11.399,6.34,10.81,12.52c-0.26,20.24-0.01,40.48-0.06,60.72c-0.01,1.48-0.01,2.96,0.04,4.44
		c-0.05,9.02-0.07,18.03-0.04,27.05c0.02,11.38,0.06,22.76,0.06,34.15c-0.04,2.3-0.069,4.6-0.06,6.899
		c-0.021,3.61-0.021,7.24,0.1,10.851c-33.529-0.15-67.05-0.18-100.569,0.029c-0.15,4.021,0.01,8.061-0.46,12.061
		c-0.431,3.67-3.101,6.46-5.381,9.15c0.95,0.459,1.9,0.92,2.86,1.359c-4.11-0.3-8.37,0.55-12.38-0.561
		c-4.04-1.66-7.21-5.67-7.4-10.109c-0.239-7.57,0.221-15.141-0.029-22.71c0-2.19-0.021-4.37-0.021-6.56
		c0.021-11.61,0.04-23.221,0.021-34.831c0.109-4.43,0-8.85,0-13.27c0.06-4.79-0.021-9.59,0.029-14.38c0.03-0.8,0.08-2.42,0.11-3.23
		l-1.05,0.39c0.189-0.16,0.56-0.49,0.75-0.66c0.569-16.24-0.24-32.52,0.319-48.77c0.24-2.43,0.311-4.88,0.25-7.32
		c-0.159-3.96,0.431-8.23-1.63-11.81C91.92,17.19,89.25,15.59,86.64,14.37 M187.24,35.41c-1.5,2.19-2.671,4.69-4.841,6.39
		c0.74,2.42,0.82,4.95-0.05,7.35c2.04,1.83,3.66,4.03,4.72,6.56c2.561-0.09,4.87,0.91,7.051,2.14c2.47-0.88,4.81-2.17,7.51-2.35
		c1.28-2.36,2.78-4.58,4.77-6.4c-1-2.36-0.859-4.86-0.04-7.24c-2.04-1.75-3.43-4.02-4.729-6.33c-2.63-0.45-5.2-1.13-7.46-2.57
		C192.16,34.54,189.73,35.14,187.24,35.41 M104.54,42.02c0.06,0.5,0.16,1.5,0.21,2.01c10.13,0.13,20.279,0.1,30.41,0.03
		c0.22-0.46,0.659-1.37,0.88-1.83C125.55,41.88,115.04,42.31,104.54,42.02 M104.5,48.69c0.109,0.49,0.33,1.48,0.439,1.98
		c13.221,0.02,26.46,0.05,39.69-0.03c0.14-0.46,0.439-1.4,0.58-1.86C131.64,48.62,118.07,48.73,104.5,48.69 M104.57,82.59
		c0.011,1.02,0.03,3.06,0.04,4.08c33.86-0.09,67.73-0.06,101.601,0.03c0.05-1.35,0.109-2.7,0.18-4.06
		C172.45,82.61,138.51,82.75,104.57,82.59 M104.53,96.61c0,0.98-0.01,2.93-0.01,3.91c33.94,0.2,67.88,0.06,101.82,0.03
		c0.01-0.98,0.04-2.94,0.05-3.91C172.44,96.6,138.48,96.68,104.53,96.61 M104.58,110.58c0,0.99,0.01,2.98,0.01,3.97
		c33.92,0.05,67.85,0.06,101.78,0c0-0.99,0.01-2.97,0.01-3.96C172.45,110.62,138.51,110.6,104.58,110.58 M107.15,150.221
		c-0.83,1.039-2.439,2.869-0.42,3.819c1.34-1.729,2.76-3.399,4.57-4.649c1.03,4.149-2.61,6.75-3.14,10.51
		c-1.341-0.881-2.521-0.74-3.53,0.42c0.71,1.359,1.81,1.64,3.31,0.84c0.41,0.029,1.221,0.08,1.62,0.109
		c8.71,0.271,17.42,0.041,26.13,0.11l-0.06-1.83c-8.2,0.28-16.42-0.25-24.61,0.229c0.431-0.92,0.84-1.84,1.22-2.779
		c0.24,0.6,0.721,1.779,0.961,2.38c1.359-0.89,2.68-1.84,3.989-2.8c5.65,2.34,12.11,2.02,17.87,0.279c0.08-0.51,0.23-1.51,0.3-2.02
		c-6.01,1.67-12.59,2.189-18.43-0.41c-0.85,0.53-1.7,1.07-2.56,1.6c-0.311-0.539-0.931-1.619-1.24-2.17
		c-0.24-2.02,1.2-5.149-1.16-6.27C110.05,147.65,108.36,148.8,107.15,150.221 M178.32,149.529c-0.52,3.351-0.159,6.771,0.19,10.111
		c-1.42-0.58-2.63-0.361-3.64,0.659c0.229,1.66,2.83,1.64,3.909,0.83c0.381,0.04,1.131,0.14,1.5,0.181
		c8.601,0.119,17.19,0.09,25.78,0.039l-0.02-1.75c-6.181-0.05-12.36-0.039-18.54,0.021c0.85-1.229,0.93-2.79,1.33-4.181
		c4.38,0.551,8.83,1.36,13.229,0.631c1.48-0.19,2.86-0.93,3.36-2.44c-5.13,0.78-10.33,1.03-15.47-0.04
		c-0.32-0.49-0.971-1.49-1.301-1.99c-0.42,0.34-1.26,1.021-1.68,1.36c-0.43-0.22-1.3-0.67-1.729-0.89
		c-0.631,0.66-1.261,1.33-1.881,2c-0.189-0.561-0.569-1.69-0.76-2.26c-1.51,0.439-1.76,2.029-2.31,3.289
		c-0.12-2.029-0.23-4.06-0.38-6.09C179.51,149.141,178.72,149.4,178.32,149.529z"/>
	<path fill="#EAE5E5" stroke="#FFFFFF" stroke-width="0.0938" d="M183.64,157.561c0.66-0.931,1.3-1.86,1.95-2.791
		c0.229,1.621,0.47,3.24,0.76,4.851c-1.75-0.011-3.49,0-5.24,0.09c0.17-0.33,0.511-1,0.681-1.33
		C182.25,158.18,183.18,157.76,183.64,157.561z"/>
</g>
<g id="_x23_ebebebff">
</g>
<g id="_x23_eb6b6aff">
	<path fill="#EB6B6A" stroke="#EB6B6A" stroke-width="0.0938" d="M187.24,35.41c2.489-0.27,4.92-0.87,6.93-2.45
		c2.26,1.44,4.83,2.12,7.46,2.57c1.3,2.31,2.689,4.58,4.729,6.33c-0.819,2.38-0.96,4.88,0.04,7.24c-1.989,1.82-3.489,4.04-4.77,6.4
		c-2.7,0.18-5.04,1.47-7.51,2.35c-2.181-1.23-4.49-2.23-7.051-2.14c-1.06-2.53-2.68-4.73-4.72-6.56c0.87-2.4,0.79-4.93,0.05-7.35
		C184.57,40.1,185.74,37.6,187.24,35.41z"/>
	<path fill="#EB6B6A" stroke="#EB6B6A" stroke-width="0.0938" d="M234.62,36.28c4.55,2.25,8.939,5.72,10.55,10.72
		c1.22,3.55,0.67,7.35,0.01,10.95c-0.57,2.82,0.83,5.49,1.47,8.17c1.37-7.92,7.051-14.94,14.65-17.63
		c-1.79,5.27-4.29,10.25-6.39,15.4c-1.99,4.83-4.33,9.52-6.04,14.46c-0.49,5.47-0.051,11.06-0.591,16.57
		C252.92,84.74,264.16,78.9,275,78.57c-5.271,5-9.931,10.58-14.96,15.82c-4.971,5.6-10.521,10.73-14.98,16.75
		c-2.399,8.19-5.97,15.94-9.64,23.62c3.08-2.06,5.75-4.77,9.22-6.2c8.08-3.69,17.46-2.79,25.74-0.23l-0.44,0.21
		c-7.529,3.35-15.09,6.66-22.689,9.88c-6.471,2.95-13.16,5.439-19.51,8.641c-3.341,4.43-6.12,9.319-10.11,13.239
		c-0.01-2.3,0.02-4.6,0.06-6.899c5.771-6.561,9.88-14.331,14.021-21.96c-0.53-0.39-1.07-0.77-1.61-1.14l1.32,0.07
		c-1.9-7.34-4.92-14.31-7.3-21.48c-2.33-5.5-3.83-11.32-6.45-16.69c-0.05-1.48-0.05-2.96-0.04-4.44
		c7.81,4.87,15.1,11.92,17.05,21.26c1.271,5.43,0.25,10.96-0.56,16.38c1.89-2.2,2.449-5.12,3.439-7.76
		c2.45-6.92,4.37-14.01,5.82-21.2c-2.271-3.85-4.86-7.5-7.34-11.22c-3.57-5.41-7.261-10.74-10.71-16.24
		c9.75,1.51,18.029,10.04,18.37,20.08c0.409-0.95,1.029-1.86,1.02-2.94c0.34-5.36,0.16-10.73,0.13-16.08
		c-0.18-3.82-0.18-7.85-1.95-11.34l0,0c0.141-0.29,0.431-0.88,0.57-1.17C241.34,50.14,237.02,43.59,234.62,36.28z"/>
	<path fill="#EB6B6A" stroke="#EB6B6A" stroke-width="0.0938" d="M173.55,193.891c3.57-0.07,7.14-0.121,10.72-0.101
		c-6.52,5.41-13.189,10.601-20.1,15.5c-2.67,1.92-5.38,3.76-8.09,5.62c-3.7,2.529-7.67,4.64-11.38,7.16
		c-0.931-3.801-4.261-6.15-7.79-7.32c3.689-1.91,7.58-3.42,11.189-5.5c2.63-1.43,5.271-2.83,7.891-4.26
		C161.97,201.49,168.18,198.311,173.55,193.891z"/>
</g>
<g id="_x23_68c6dfff">
	<path fill="#68C6DF" stroke="#68C6DF" stroke-width="0.0938" d="M73.31,39.15c1.48-0.86,2.95-1.74,4.43-2.62
		c-2.35,7.94-7.13,14.91-9.319,22.9c-2.11,11.05-1.391,22.37-0.351,33.5c0.29-5.15,0.78-10.63,3.96-14.91
		c3.58-5.05,9.381-7.87,15.15-9.65l0.01,0.8c-4.81,5.61-8.479,12.07-12.46,18.27c-1.979,2.96-4.189,5.8-5.72,9.04l-0.17,0.53
		c2.18,10.69,5.149,21.3,9.979,31.12c-1.739-6.35-3.01-13.08-1.399-19.59c2.04-8.65,8.55-15.61,16.04-20.05l1.05-0.39
		c-0.03,0.81-0.08,2.43-0.11,3.23c-2.229,4.64-3.59,9.6-5.359,14.41c-3.04,8.33-5.971,16.71-8.471,25.22l-0.08,0.4
		c3.391,8.18,8.79,15.27,13.86,22.451c0,2.189,0.021,4.369,0.021,6.56c-3.87-4.08-6.841-8.91-10.28-13.32
		c-7.82-4.29-16.37-6.98-24.45-10.72c-5.92-2.75-11.89-5.42-17.99-7.79c7.41-2.82,15.87-3.3,23.46-0.9
		c4.67,1.43,8.32,4.75,11.971,7.82c-4.11-7.88-7.67-16.06-10.32-24.52c-3.78-5.16-8.6-9.43-12.76-14.26
		c-5.5-5.88-10.69-12.05-16.49-17.64l-0.38-0.79c10.74,1.13,22.14,6.29,26.6,16.78c-0.51-5.5-0.26-11.03-0.39-16.52
		c-0.97-3.32-2.6-6.37-4.1-9.46c-2.79-6.99-5.801-13.9-9.051-20.69l-0.229-0.51c7.91,3.26,14.729,10.35,15.35,19.22
		c0.33-3.74,2.851-7.22,1.811-11C65.55,49.81,67.96,42.84,73.31,39.15z"/>
	<path fill="#68C6DF" stroke="#68C6DF" stroke-width="0.0938" d="M104.63,160.32c1.01-1.16,2.189-1.301,3.53-0.42
		c-0.051,0.31-0.16,0.939-0.221,1.26C106.44,161.96,105.34,161.68,104.63,160.32z"/>
	<path fill="#68C6DF" stroke="#68C6DF" stroke-width="0.0938" d="M127.99,193.88c3.301,0.04,6.591,0.05,9.891,0.021
		c5.85,3.99,11.939,7.6,18.11,11.09c-2.62,1.43-5.261,2.83-7.891,4.26C141.04,204.63,134.44,199.3,127.99,193.88z"/>
	<path fill="#68C6DF" stroke="#68C6DF" stroke-width="0.0938" d="M156.08,214.91c2.71-1.86,5.42-3.7,8.09-5.62
		c3.55,1.989,7.29,3.59,10.91,5.46c-3.9,0.59-6.45,3.891-7.771,7.359C163.65,219.58,159.77,217.38,156.08,214.91z"/>
</g>
<g id="_x23_5297aaff">
	<path fill="#5297AA" stroke="#5297AA" stroke-width="0.0938" d="M77.74,36.53c0.36,0.85,0.721,1.7,1.091,2.56
		C79.7,43.41,79.58,48.2,77.11,52c-2.01,3.36-5.39,5.51-8.689,7.43C70.61,51.44,75.39,44.47,77.74,36.53z"/>
</g>
<g id="_x23_ac514fff">
	<path fill="#AC514F" stroke="#AC514F" stroke-width="0.0938" d="M234.64,50.32c-1.92-4.45-1.56-9.54-0.02-14.04
		c2.399,7.31,6.72,13.86,8.85,21.25c-0.14,0.29-0.43,0.88-0.57,1.17C239.48,56.72,236.21,54.05,234.64,50.32z"/>
</g>
<g id="_x23_393a39ff">
	<path fill="#393A39" stroke="#393A39" stroke-width="0.0938" d="M104.54,42.02c10.5,0.29,21.01-0.14,31.5,0.21
		c-0.221,0.46-0.66,1.37-0.88,1.83c-10.131,0.07-20.28,0.1-30.41-0.03C104.7,43.52,104.6,42.52,104.54,42.02z"/>
	<path fill="#393A39" stroke="#393A39" stroke-width="0.0938" d="M104.5,48.69c13.569,0.04,27.14-0.07,40.71,0.09
		c-0.141,0.46-0.44,1.4-0.58,1.86c-13.23,0.08-26.47,0.05-39.69,0.03C104.83,50.17,104.61,49.18,104.5,48.69z"/>
	<path fill="#393A39" stroke="#393A39" stroke-width="0.0938" d="M104.57,82.59c33.94,0.16,67.881,0.02,101.82,0.05
		c-0.07,1.36-0.13,2.71-0.18,4.06c-33.87-0.09-67.74-0.12-101.601-0.03C104.6,85.65,104.58,83.61,104.57,82.59 M106.01,84.47
		c32.98,0.17,65.95,0.11,98.92,0.03C171.96,84.39,138.99,84.44,106.01,84.47z"/>
	<path fill="#393A39" stroke="#393A39" stroke-width="0.0938" d="M104.53,96.61c33.95,0.07,67.91-0.01,101.86,0.03
		c-0.01,0.97-0.04,2.93-0.05,3.91c-33.94,0.03-67.88,0.17-101.82-0.03C104.52,99.54,104.53,97.59,104.53,96.61 M106.1,98.51
		c32.95,0.07,65.9,0.1,98.84-0.03C172,98.41,139.05,98.39,106.1,98.51z"/>
	<path fill="#393A39" stroke="#393A39" stroke-width="0.0938" d="M104.58,110.58c33.93,0.02,67.87,0.04,101.8,0.01
		c0,0.99-0.01,2.97-0.01,3.96c-33.931,0.06-67.86,0.05-101.78,0C104.59,113.56,104.58,111.57,104.58,110.58 M106,112.49
		c32.939,0.11,65.899,0.11,98.84,0.01C171.9,112.4,138.95,112.39,106,112.49z"/>
	<path fill="#393A39" stroke="#393A39" stroke-width="0.0938" d="M107.15,150.221c1.21-1.421,2.9-2.57,4.82-2.631
		c2.36,1.12,0.92,4.25,1.16,6.27c0.31,0.551,0.93,1.631,1.24,2.17c0.859-0.529,1.71-1.069,2.56-1.6c5.84,2.6,12.42,2.08,18.43,0.41
		c-0.069,0.51-0.22,1.51-0.3,2.02c-5.76,1.74-12.22,2.061-17.87-0.279c-1.31,0.96-2.63,1.91-3.989,2.8
		c-0.24-0.601-0.721-1.78-0.961-2.38c-0.38,0.939-0.789,1.859-1.22,2.779c-0.359,0.371-1.09,1.111-1.46,1.49
		c-0.399-0.029-1.21-0.08-1.62-0.109c0.061-0.32,0.17-0.95,0.221-1.26c0.529-3.76,4.17-6.36,3.14-10.51
		c-1.811,1.25-3.23,2.92-4.57,4.649C104.71,153.09,106.32,151.26,107.15,150.221z"/>
	<path fill="#393A39" stroke="#393A39" stroke-width="0.0938" d="M178.32,149.529c0.4-0.129,1.19-0.389,1.591-0.52
		c0.149,2.03,0.26,4.061,0.38,6.09c0.55-1.26,0.8-2.85,2.31-3.289c0.19,0.569,0.57,1.699,0.76,2.26c0.62-0.67,1.25-1.34,1.881-2
		c0.43,0.22,1.3,0.67,1.729,0.89c0.42-0.34,1.26-1.021,1.68-1.36c0.33,0.5,0.98,1.5,1.301,1.99c5.14,1.07,10.34,0.82,15.47,0.04
		c-0.5,1.511-1.88,2.25-3.36,2.44c-4.399,0.729-8.85-0.08-13.229-0.631c-0.4,1.391-0.48,2.951-1.33,4.181c-0.29,0-0.86,0-1.15,0
		c-0.29-1.61-0.53-3.229-0.76-4.851c-0.65,0.931-1.29,1.86-1.95,2.791c-0.46,0.199-1.39,0.619-1.85,0.819
		c-0.17,0.33-0.511,1-0.681,1.33l-0.83,1.601c-0.369-0.041-1.119-0.141-1.5-0.181c-0.069-0.38-0.199-1.12-0.27-1.489
		C178.16,156.3,177.8,152.88,178.32,149.529z"/>
</g>
<g id="_x23_b65552ff">
	<path fill="#B65552" stroke="#B65552" stroke-width="0.0938" d="M261.56,47.81c2.351,4.95,2.17,10.69,1.29,15.98l-0.24-0.03
		c-1.09-0.11-2.17-0.22-3.25-0.33c-1.06,0.66-2.109,1.32-3.159,1.98c-0.32-0.38-0.971-1.14-1.29-1.52c2.1-5.15,4.6-10.13,6.39-15.4
		L261.56,47.81z"/>
</g>
<g id="_x23_57a2b5ff">
	<path fill="#57A2B5" stroke="#57A2B5" stroke-width="0.0938" d="M50.19,48.36c3.25,6.79,6.261,13.7,9.051,20.69
		c-4.19-2.36-7.03-6.35-10.7-9.36C48.54,55.86,48.62,51.92,50.19,48.36z"/>
	<path fill="#57A2B5" stroke="#57A2B5" stroke-width="0.0938" d="M41.65,128.54c6.101,2.37,12.07,5.04,17.99,7.79
		c-1.64,2.57,1.23,4.53,2.47,6.51c-3.97,0.12-7.89-0.57-11.659-1.77C46.61,137.63,43.95,133.1,41.65,128.54z"/>
</g>
<g id="_x23_4b8d9dff">
	<path fill="#4B8D9D" stroke="#4B8D9D" stroke-width="0.0938" d="M48.54,59.69c3.67,3.01,6.51,7,10.7,9.36
		c1.5,3.09,3.13,6.14,4.1,9.46C55.76,75.2,48.95,68.36,48.54,59.69z"/>
</g>
<g id="_x23_a34c4bff">
	<path fill="#A34C4B" stroke="#A34C4B" stroke-width="0.0938" d="M259.36,63.43c1.08,0.11,2.16,0.22,3.25,0.33
		c-1.75,6.83-7.51,11.81-13.739,14.59c1.71-4.94,4.05-9.63,6.04-14.46c0.319,0.38,0.97,1.14,1.29,1.52
		C257.25,64.75,258.3,64.09,259.36,63.43z"/>
	<path fill="#A34C4B" stroke="#A34C4B" stroke-width="0.0938" d="M217.67,92.2c2.62,5.37,4.12,11.19,6.45,16.69
		c2.38,7.17,5.399,14.14,7.3,21.48l-1.32-0.07c-4.79-2.91-8.82-6.84-12.47-11.05C217.6,110.23,217.62,101.22,217.67,92.2z"/>
</g>
<g id="_x23_b45452ff">
	<path fill="#B45452" stroke="#B45452" stroke-width="0.0938" d="M224.91,68.36l0.42,0.62c3.449,5.5,7.14,10.83,10.71,16.24
		c-3.261-0.18-6.55-0.38-9.61-1.63C224.54,78.76,224.18,73.47,224.91,68.36z"/>
</g>
<g id="_x23_57a2b4ff">
	<path fill="#57A2B4" stroke="#57A2B4" stroke-width="0.0938" d="M74.73,87.44c3.98-6.2,7.65-12.66,12.46-18.27
		c0.2,3.05,0.37,6.13-0.13,9.16c-2.08,1.84-3.42,4.32-5.26,6.37C79.79,86.3,77.17,86.82,74.73,87.44z"/>
	<path fill="#57A2B4" stroke="#57A2B4" stroke-width="0.0938" d="M37.51,79.04C43.31,84.63,48.5,90.8,54,96.68
		c-0.49,0.97-0.971,1.94-1.44,2.91c-4.13,0.44-7.609-2.17-11.18-3.8C38.57,90.77,37.19,84.79,37.51,79.04z"/>
</g>
<g id="_x23_4d8e9eff">
</g>
<g id="_x23_b35451ff">
	<path fill="#B35451" stroke="#B35451" stroke-width="0.0938" d="M260.04,94.39c5.029-5.24,9.689-10.82,14.96-15.82
		c-0.67,8.9-2.91,18.46-9.9,24.6c-1.29-1.99-2.68-3.91-4.21-5.72c0.15-0.46,0.311-0.92,0.48-1.37
		C261.03,95.66,260.37,94.81,260.04,94.39z"/>
</g>
<g id="_x23_a24c4bff">
	<path fill="#A24C4B" stroke="#A24C4B" stroke-width="0.0938" d="M226.43,83.59c3.061,1.25,6.35,1.45,9.61,1.63
		c2.479,3.72,5.069,7.37,7.34,11.22C236.25,94.86,229.53,90.35,226.43,83.59z"/>
</g>
<g id="_x23_4a8999ff">
	<path fill="#4A8999" stroke="#4A8999" stroke-width="0.0938" d="M106.01,84.47c32.98-0.03,65.95-0.08,98.92,0.03
		C171.96,84.58,138.99,84.64,106.01,84.47z"/>
	<path fill="#4A8999" stroke="#4A8999" stroke-width="0.0938" d="M41.38,95.79c3.57,1.63,7.05,4.24,11.18,3.8
		c0.47-0.97,0.95-1.94,1.44-2.91c4.16,4.83,8.979,9.1,12.76,14.26C56.72,110.05,45.89,105.38,41.38,95.79z"/>
	<path fill="#4A8999" stroke="#4A8999" stroke-width="0.0938" d="M106.1,98.51c32.95-0.12,65.9-0.1,98.84-0.03
		C172,98.61,139.05,98.58,106.1,98.51z"/>
	<path fill="#4A8999" stroke="#4A8999" stroke-width="0.0938" d="M106,112.49c32.95-0.1,65.899-0.09,98.84,0.01
		C171.9,112.6,138.94,112.6,106,112.49z"/>
</g>
<g id="_x23_57a0b1ff">
	<path fill="#57A0B1" stroke="#57A0B1" stroke-width="0.0938" d="M89.04,105.74c1.77-4.81,3.13-9.77,5.359-14.41
		c-0.05,4.79,0.03,9.59-0.029,14.38c-0.721,1.07-1.45,2.13-2.19,3.18C91.13,107.84,90.08,106.79,89.04,105.74z"/>
</g>
<g id="_x23_a24c4aff">
	<path fill="#A24C4A" stroke="#A24C4A" stroke-width="0.0938" d="M245.06,111.14c4.46-6.02,10.01-11.15,14.98-16.75
		c0.33,0.42,0.989,1.27,1.33,1.69c-0.17,0.45-0.33,0.91-0.48,1.37c1.53,1.81,2.92,3.73,4.21,5.72
		C259.41,107.82,252.28,110.22,245.06,111.14z"/>
</g>
<g id="_x23_4b8c9bff">
	<path fill="#4B8C9B" stroke="#4B8C9B" stroke-width="0.0938" d="M89.04,105.74c1.04,1.05,2.09,2.1,3.14,3.15
		c0.74-1.05,1.47-2.11,2.19-3.18c0,4.42,0.109,8.84,0,13.27c-3.78,4.84-8.381,9.03-13.801,11.98
		C83.07,122.45,86,114.07,89.04,105.74z"/>
</g>
<g id="_x23_fac66bff">
</g>
<g id="_x23_fac66aff">
</g>
<g id="_x23_b45451ff">
	<path fill="#B45451" stroke="#B45451" stroke-width="0.0938" d="M247.25,138.42c7.6-3.22,15.16-6.53,22.689-9.88
		c-2.149,6.13-6.5,11.37-11.529,15.41c-0.811-0.83-1.62-1.65-2.42-2.47c-1.62,1-3.271,1.94-4.891,2.92
		C249.93,142.33,248.69,140.3,247.25,138.42z"/>
</g>
<g id="_x23_4a8b9cff">
	<path fill="#4A8B9C" stroke="#4A8B9C" stroke-width="0.0938" d="M62.11,142.84c-1.239-1.98-4.109-3.94-2.47-6.51
		c8.08,3.74,16.63,6.43,24.45,10.72c-11.13,4.06-25.26,3.24-33.64-5.98C54.22,142.27,58.14,142.96,62.11,142.84z"/>
</g>
<g id="_x23_a14b49ff">
	<path fill="#A14B49" stroke="#A14B49" stroke-width="0.0938" d="M227.74,147.061c6.35-3.201,13.039-5.69,19.51-8.641
		c1.439,1.88,2.68,3.91,3.85,5.98c1.62-0.98,3.271-1.92,4.891-2.92c0.8,0.82,1.609,1.64,2.42,2.47
		C249.63,150.37,237.71,150.66,227.74,147.061z"/>
</g>
<g id="_x23_7ccee2ff">
	<path fill="#7CCEE2" stroke="#7CCEE2" stroke-width="0.0938" d="M174.87,160.3c1.01-1.021,2.22-1.239,3.64-0.659
		c0.07,0.369,0.2,1.109,0.27,1.489C177.7,161.939,175.1,161.96,174.87,160.3z"/>
</g>
<g id="_x23_4cbad5ff">
	<path fill="#4CBAD5" stroke="#4CBAD5" stroke-width="0.0938" d="M109.56,161.27c0.37-0.379,1.101-1.119,1.46-1.49
		c8.19-0.479,16.41,0.051,24.61-0.229l0.06,1.83C126.98,161.311,118.27,161.54,109.56,161.27z"/>
</g>
<g id="_x23_4ebdd9ff">
	<path fill="#4EBDD9" stroke="#4EBDD9" stroke-width="0.0938" d="M181.11,159.71c1.75-0.09,3.49-0.101,5.24-0.09
		c0.29,0,0.86,0,1.15,0c6.18-0.06,12.359-0.07,18.54-0.021l0.02,1.75c-8.59,0.051-17.18,0.08-25.78-0.039L181.11,159.71z"/>
</g>
<g id="_x23_f6f6f6ff">
	<path fill="#D8D2D2" stroke="#F6F6F6" stroke-width="0.0938" d="M117.16,171.18c33.52-0.209,67.04-0.18,100.569-0.029
		c7.49,0.119,14.99,0.14,22.48,0.05c-0.44,6.319,1.72,13.84-2.99,19.04c-3.05,3.48-7.96,3.9-12.28,3.619
		c-13.55-0.049-27.109,0-40.67-0.069c-3.58-0.021-7.149,0.03-10.72,0.101c-11.89-0.041-23.78-0.101-35.67,0.01
		c-3.3,0.029-6.59,0.02-9.891-0.021c-4.6-0.18-9.21,0.05-13.81-0.13c-0.96-0.439-1.91-0.9-2.86-1.359
		c2.28-2.69,4.95-5.48,5.381-9.15C117.17,179.24,117.01,175.2,117.16,171.18z"/>
</g>
<g id="_x23_a64e4cff">
	<path fill="#A64E4C" stroke="#A64E4C" stroke-width="0.0938" d="M135.85,214.811l1.061-0.061c3.529,1.17,6.859,3.52,7.79,7.32
		C140.41,223.1,136.39,218.85,135.85,214.811z"/>
</g>
<g id="_x23_559aabff">
	<path fill="#559AAB" stroke="#559AAB" stroke-width="0.0938" d="M167.31,222.109c1.32-3.469,3.87-6.77,7.771-7.359l0.989-0.061
		C175.77,218.83,171.5,222.77,167.31,222.109z"/>
</g>
<g id="_x23_d4ab5cff">
	<path fill="#B5B4B4" stroke="#8C8C8C" stroke-width="0.0938" d="M102.36,251.5c14.37-2.82,29.051-3.08,43.631-3.63
		c17.329-0.2,34.699,0.101,51.96,1.819c4.399,0.57,8.819,1.11,13.1,2.311c1.24,0.45,2.84,0.7,3.479,2.04
		c-1.939,2.51-5.47,2.569-8.289,3.36c-16.631,2.56-33.511,3.08-50.32,2.959c-16.54,0.011-33.16-0.35-49.54-2.83
		c-3.23-0.549-6.83-0.899-9.17-3.489C98.64,252.68,100.42,251.811,102.36,251.5z"/>
</g>
</svg>
